<svg id="Logo" xmlns="http://www.w3.org/2000/svg" width="200.001" height="39.516" viewBox="0 0 200.001 39.516">
  <path id="Path_1" data-name="Path 1" d="M52.69,42.036h-6.86L41.953,30.1l-.028.112L38.077,42.036H25.5l10.179,7.39-2.119,6.526,5.605-4.071,12.828,9.314L47.084,46.107Z" transform="translate(-18.389 -21.706)" fill="#000"/>
  <path id="Path_2" data-name="Path 2" d="M7.92,39.516l3.374-2.454,2.677-8.254L11.88,27.3Zm20.8-24.429.781,2.454h8.673l3.374-2.454ZM20.776,0,15.868,15.087H0l3.374,2.454H17.652L22.058,3.96Z" fill="#000"/>
  <g id="Group_7" data-name="Group 7" transform="translate(46.465 11.127)">
    <path id="Path_3" data-name="Path 3" d="M158.23,16.6h9.063a17.967,17.967,0,0,1,3.542.335,6.56,6.56,0,0,1,2.761,1.2,4.923,4.923,0,0,1,1.673,2.259,7.377,7.377,0,0,1,.251,3.6,9.133,9.133,0,0,1-1.2,3.57,7.1,7.1,0,0,1-2.231,2.315,8.931,8.931,0,0,1-3.04,1.227,16.825,16.825,0,0,1-3.625.363h-3.932l-1.311,9.509H154.8Zm3.932,10.318h3.57a8.191,8.191,0,0,0,1.422-.139,4.181,4.181,0,0,0,1.283-.474,3.406,3.406,0,0,0,1-.892,3.221,3.221,0,0,0,.53-1.422,2.178,2.178,0,0,0-.223-1.506,2.324,2.324,0,0,0-1-.864,4.619,4.619,0,0,0-1.45-.39,15.049,15.049,0,0,0-1.562-.084h-2.789Z" transform="translate(-154.8 -15.958)" fill="#000"/>
    <path id="Path_4" data-name="Path 4" d="M234.8,16.6h9.426a15.545,15.545,0,0,1,3.486.363,7.346,7.346,0,0,1,2.761,1.2,4.924,4.924,0,0,1,1.673,2.259,7.292,7.292,0,0,1,.251,3.57,8.414,8.414,0,0,1-1.952,4.378,7.049,7.049,0,0,1-4.239,2.287l4.741,10.29h-6.442l-3.737-9.732h-2.649l-1.339,9.732H231.4Zm3.96,10.1h3.179c.474,0,1-.028,1.534-.056a5.355,5.355,0,0,0,1.506-.307,3.152,3.152,0,0,0,1.2-.809,2.772,2.772,0,0,0,.641-1.562,2.445,2.445,0,0,0-.167-1.478,2.084,2.084,0,0,0-.864-.837,3.64,3.64,0,0,0-1.283-.39,13.193,13.193,0,0,0-1.45-.112h-3.514Z" transform="translate(-210.039 -15.958)" fill="#000"/>
    <path id="Path_5" data-name="Path 5" d="M311.084,27.2a15.592,15.592,0,0,1,1.729-5.3,14.639,14.639,0,0,1,3.291-4.044,13.888,13.888,0,0,1,4.518-2.566,16.429,16.429,0,0,1,5.41-.892,14.14,14.14,0,0,1,5.131.892,9.836,9.836,0,0,1,3.793,2.566A9.946,9.946,0,0,1,337.13,21.9a12.762,12.762,0,0,1,.251,5.3,15.008,15.008,0,0,1-1.729,5.3,14.158,14.158,0,0,1-3.291,4.044,14.489,14.489,0,0,1-4.518,2.566,16.263,16.263,0,0,1-5.382.892,14.4,14.4,0,0,1-5.159-.892,9.633,9.633,0,0,1-3.793-2.566,9.946,9.946,0,0,1-2.175-4.044,12.763,12.763,0,0,1-.251-5.3m5.577,0a7.865,7.865,0,0,0,.111,3.151,5.893,5.893,0,0,0,1.2,2.482,5.751,5.751,0,0,0,2.147,1.645,7.3,7.3,0,0,0,3.04.586,8.734,8.734,0,0,0,3.207-.586,8.508,8.508,0,0,0,2.621-1.645,8.676,8.676,0,0,0,1.868-2.482,9.681,9.681,0,0,0,.976-3.151,8.307,8.307,0,0,0-.084-3.123,5.737,5.737,0,0,0-1.2-2.482,5.849,5.849,0,0,0-2.175-1.645,7.3,7.3,0,0,0-3.04-.586,8.734,8.734,0,0,0-3.207.586,8.509,8.509,0,0,0-2.621,1.645,8.677,8.677,0,0,0-1.868,2.482,9.086,9.086,0,0,0-.976,3.123" transform="translate(-267.385 -14.372)" fill="#000"/>
    <path id="Path_6" data-name="Path 6" d="M422.319,20.881a3.313,3.313,0,0,0-1.617-1.227,6.261,6.261,0,0,0-2.064-.39,6.368,6.368,0,0,0-1.227.139,4.555,4.555,0,0,0-1.227.418,2.949,2.949,0,0,0-.976.781,2.5,2.5,0,0,0-.53,1.171,1.964,1.964,0,0,0,.279,1.366,2.926,2.926,0,0,0,1.143.892,10.248,10.248,0,0,0,1.729.641c.641.2,1.311.39,1.98.614a13.267,13.267,0,0,1,1.952.837,6.041,6.041,0,0,1,1.645,1.227,4.471,4.471,0,0,1,1,1.868,6.145,6.145,0,0,1,.084,2.705,8.779,8.779,0,0,1-1.255,3.542,8.953,8.953,0,0,1-2.4,2.51,9.65,9.65,0,0,1-3.207,1.478,13.266,13.266,0,0,1-3.653.474,12.274,12.274,0,0,1-4.295-.725A9.174,9.174,0,0,1,406.2,36.86l4.434-4.211a4.516,4.516,0,0,0,1.841,1.7,5.445,5.445,0,0,0,2.482.614A5.5,5.5,0,0,0,416.3,34.8a5.052,5.052,0,0,0,1.283-.474,3.021,3.021,0,0,0,.976-.781,2.66,2.66,0,0,0,.5-1.143,1.718,1.718,0,0,0-.614-1.729,7.344,7.344,0,0,0-1.98-1.088c-.809-.307-1.673-.586-2.621-.892a11.045,11.045,0,0,1-2.594-1.2,5.32,5.32,0,0,1-1.841-2.008,5.253,5.253,0,0,1-.39-3.263,8.42,8.42,0,0,1,1.255-3.43,8.936,8.936,0,0,1,2.426-2.482A10.914,10.914,0,0,1,415.9,14.8a13.034,13.034,0,0,1,7.446.084,7.52,7.52,0,0,1,3.179,1.952Z" transform="translate(-336.092 -14.3)" fill="#000"/>
    <path id="Path_7" data-name="Path 7" d="M489.972,21.341H483l.642-4.741h19.27l-.641,4.741h-6.944l-2.761,19.6h-5.382Z" transform="translate(-391.475 -15.958)" fill="#000"/>
    <path id="Path_8" data-name="Path 8" d="M544.416,16.6h4.434l7.195,24.373h-6.052l-1.366-5.159h-9.454l-2.761,5.159H530.5Zm1.06,7.083-4.016,7.585h5.968Z" transform="translate(-425.73 -15.958)" fill="#000"/>
    <path id="Path_9" data-name="Path 9" d="M633.03,16.6h9.426a15.546,15.546,0,0,1,3.486.363,7.345,7.345,0,0,1,2.761,1.2,4.923,4.923,0,0,1,1.673,2.259,7.291,7.291,0,0,1,.251,3.57,8.415,8.415,0,0,1-1.952,4.378,7.049,7.049,0,0,1-4.239,2.287l4.741,10.29h-6.442l-3.765-9.732h-2.649l-1.339,9.732H629.6Zm3.96,10.1h3.179c.474,0,1-.028,1.534-.056a5.356,5.356,0,0,0,1.506-.307,3.153,3.153,0,0,0,1.2-.809,2.773,2.773,0,0,0,.641-1.562,2.445,2.445,0,0,0-.167-1.478,2.084,2.084,0,0,0-.865-.837,3.64,3.64,0,0,0-1.283-.39,13.193,13.193,0,0,0-1.45-.112h-3.514Z" transform="translate(-497.193 -15.958)" fill="#000"/>
  </g>
</svg>
