<?xml version="1.0" encoding="UTF-8"?> <svg xmlns="http://www.w3.org/2000/svg" xmlns:xlink="http://www.w3.org/1999/xlink" fill="none" height="64" viewBox="0 0 57 64" width="57"><clipPath id="a"><path d="m.230957 0h56v64h-56z"></path></clipPath><g clip-path="url(#a)" clip-rule="evenodd" fill="#000" fill-rule="evenodd"><path d="m28.2454 64s1.9349-3.7763 8.3031-4.2006c3.6181-.2412 8.4979-.6614 13.2254-4.652 3.9325-3.3193 6.4571-8.2688 6.4571-13.8157 0-4.5855-1.4474-8.2522-2.713-11.3039-.0842-.203-.1685-.4048-.2523-.6058-.512-1.2265-1.0105-2.421-1.3954-3.6271-.4174-1.3059-.6578-2.5095-.6578-3.7219 0-2.4133.9894-4.5876 2.5959-6.1622l1.8773-1.8401-13.2884-14.0707-1.8473 1.01987c-3.646 2.01329-7.8436 3.16327-12.3177 3.16327-4.4745 0-8.6743-1.14998-12.3203-3.16327l-1.8471-1.01987-13.288771 14.0705 1.877371 1.84c1.60656 1.5747 2.59602 3.749 2.59602 6.1623 0 1.2123-.2407 2.416-.65776 3.7219-.3854 1.2071-.88437 2.4025-1.3967 3.63-.08349.2-.16734.4009-.25111.6028-1.26556 3.0518-2.712993 6.7185-2.712993 11.3039 0 5.547 2.524683 10.4965 6.457043 13.8157 4.7277 3.9908 9.6287 4.6523 13.2543 4.6523 6.3823 0 8.3031 4.2006 8.3031 4.2006zm-13.6501-60.63135c4.0374 2.22915 8.689 3.50217 13.637 3.50217s9.5969-1.27291 13.6342-3.50217l10.0389 10.62945c-2.1 2.0583-3.4013 4.9129-3.4013 8.0747 0 2.9537 1.1065 5.6098 2.2805 8.4276 1.3261 3.1832 2.7383 6.5727 2.7383 10.8309 0 4.7184-2.1445 8.933-5.5038 11.7686-4.1789 3.5273-8.4819 3.8084-12.1086 4.0454-3.3446.2185-6.1142.3995-7.6808 3.0543-1.5669-2.6549-4.3359-2.8358-7.6799-3.0543-3.626-.237-7.9282-.5181-12.10719-4.0454-3.35926-2.8356-5.50365-7.0502-5.50365-11.7686 0-4.2582 1.41208-7.6477 2.73818-10.8309 1.17388-2.8178 2.28039-5.4739 2.28039-8.4276 0-3.1618-1.30106-6.0164-3.40132-8.0747z"></path><g fill-opacity=".5"><path d="m6.98278 50.7249c-2.12244-2.5569-3.40661-5.8255-3.40661-9.3933 0-3.8798 1.20938-7.0214 2.46138-10.0399.32216-.7769.64386-1.5397.94523-2.2976l.00011 21.7268z"></path><path d="m10.8467 54.0355v-25.0414h3.8716v26.7118c-1.2851-.3507-2.5679-.8772-3.8716-1.6704z"></path><path d="m18.5742 56.3841v-27.39h3.8669v27.6586c-.7232-.0682-1.4842-.1135-2.2742-.1663-.5162-.0341-1.0596-.0528-1.5927-.1023z"></path><path d="m49.4765 50.7249c2.1224-2.5569 3.4064-5.8255 3.4064-9.3933 0-3.8798-1.2094-7.0214-2.4612-10.0399-.3222-.7769-.6439-1.5397-.9453-2.2976l-.0003 21.7268z"></path><path d="m45.6128 54.0355v-25.0414h-3.8716v26.7118c1.2852-.3507 2.568-.8772 3.8716-1.6704z"></path><path d="m37.8858 56.3841v-27.39h-3.8672v27.6586c.7233-.0682 1.4844-.1135 2.2744-.1663.516-.0341 1.0597-.0528 1.5928-.1023z"></path><path d="m28.2296 59.09c-.5495-.6715-1.1958-1.1566-1.9127-1.51v-28.5859h3.8252v28.5859c-.7166.3534-1.3629.8385-1.9125 1.51z"></path></g><path d="m10.8468 54.0405c-.6578-.4002-1.33645-.8699-1.99135-1.4225-.68396-.5779-1.31565-1.2146-1.88621-1.9029l.01379.0054-.00012-21.7268h3.86389z"></path><path d="m18.5739 56.3647c-1.2527-.1163-2.5403-.298-3.8556-.6568v-26.7138h3.8556z"></path><path d="m22.4409 56.6527v-27.6586h3.8762v28.5833c-.3965-.1951-.8151-.3508-1.2505-.4757-.7242-.2071-1.5104-.3335-2.3475-.4209z"></path><path d="m45.6128 54.0405c.6578-.4002 1.3363-.8699 1.9913-1.4225.684-.5779 1.3155-1.2146 1.886-1.9029l-.0138.0054.0004-21.7268h-3.8639z"></path><path d="m37.8857 56.3647c1.2525-.1163 2.54-.298 3.8555-.6568v-26.7138h-3.8555z"></path><path d="m34.0184 56.6527v-27.6586h-3.8763v28.5833c.3968-.1951.8153-.3508 1.2508-.4757.7241-.2071 1.5104-.3335 2.3476-.4209z"></path><path d="m38.5564 19.1318h-1.7517v5.9107h1.7517z"></path><path d="m35.6845 20.4554v-1.3231h-4.0483v5.9107h1.7648v-2.0579h2.2835v-1.3846h-2.2835v-1.1451z"></path><path d="m30.3894 19.1318h-1.7517v5.9107h1.7517z"></path><path d="m24.4743 22.1728c-.0227-.8868.6345-1.4948 1.4554-1.5153.4115-.0101.944.2034 1.4964.346v-1.6292c-.265-.1631-.9831-.367-1.4362-.367-1.6761 0-3.1598 1.2612-3.1598 3.1489s1.4837 3.1529 3.1598 3.1529c.453 0 1.1712-.204 1.4362-.3669v-1.6293c-.5524.1427-1.0849.356-1.4964.346-.8208-.0204-1.478-.6284-1.4554-1.5152z"></path><path d="m41.1131 22.1728c-.0225-.8868.6345-1.4948 1.4551-1.5153.4117-.0101.9442.2034 1.4965.346v-1.6292c-.2649-.1631-.9832-.367-1.4359-.367-1.6763 0-3.16 1.2612-3.16 3.1489s1.4837 3.1529 3.16 3.1529c.4527 0 1.171-.204 1.4359-.3669v-1.6293c-.5524.1427-1.0848.356-1.4965.346-.8206-.0204-1.4776-.6284-1.4551-1.5152z"></path><path d="m18.3479 25.0444.3619-1.0179h2.2321l.3618 1.0179h1.6582l-2.1494-5.9135h-1.9734l-2.1492 5.9135zm1.4806-4.2563.6141 1.8955h-1.2492l.6213-1.8955z"></path><path d="m17.1991 21.1284c0-1.1031-.8932-1.9975-2.0047-1.9975l-2.7974.0001v5.9133h1.6361v-1.9184h1.1533c1.1116 0 2.0127-.8943 2.0127-1.9975zm-2.1199-.6792h-1.046v1.3329h1.0434c.3456 0 .6257-.3688.6257-.7119 0-.3429-.2776-.621-.6231-.621z"></path><path d="m29.0205 10.8765h-1.7515v5.9108h1.7515z"></path><path d="m37.4482 16.7865h1.6861v-2.9785h.0158l2.0209 2.9793h1.9123v-5.9108h-1.813v3.1215h-.0157l-2.0271-3.1215h-1.7793z"></path><path d="m20.1416 16.7865h1.6858v-2.9785h.0159l2.021 2.9793h1.9124v-5.9108h-1.8129v3.1215h-.0159l-2.0272-3.1215h-1.7791z"></path><path d="m33.1964 10.7354c-1.746 0-3.1617 1.3909-3.1617 3.107 0 1.7159 1.4158 3.1069 3.1617 3.1071 1.7463 0 3.162-1.3912 3.162-3.1071 0-1.7161-1.4157-3.107-3.162-3.107zm-.0002 1.6425c-.823 0-1.4901.6556-1.4901 1.4644 0 .8087.6671 1.4642 1.4901 1.4642s1.4902-.6555 1.4902-1.4642-.6672-1.4644-1.4902-1.4644z"></path><path d="m16.8864 10.8716h1.7249v3.2918c0 .7531-.0319 1.4984-.6283 2.0651-.501.4812-1.2883.6522-1.9881.6522s-1.4871-.171-1.9884-.6522c-.5963-.5667-.6281-1.312-.6281-2.0651v-3.2918h1.7249v2.8686c0 .761-.1105 1.5916.8915 1.5916s.8914-.8307.8914-1.5916z"></path></g></svg>
